<svg width="17" height="17" viewBox="0 0 17 17" fill="none" xmlns="http://www.w3.org/2000/svg">
<rect width="16.1279" height="16.1279" fill="#0A0A0A"/>
<path d="M4.77196 12.202C4.25662 12.202 3.80385 12.1063 3.41366 11.9149C3.03083 11.7161 2.73267 11.44 2.51917 11.0866C2.31303 10.7259 2.20996 10.3026 2.20996 9.81669V6.30499C2.20996 5.81173 2.31303 5.38841 2.51917 5.03503C2.73267 4.68165 3.03083 4.40925 3.41366 4.21784C3.80385 4.01907 4.25662 3.91968 4.77196 3.91968C5.29467 3.91968 5.74375 4.01907 6.11922 4.21784C6.50205 4.40925 6.80021 4.68165 7.01371 5.03503C7.22721 5.38841 7.33396 5.81173 7.33396 6.30499H5.94253C5.94253 5.92216 5.83946 5.63136 5.63332 5.43258C5.43455 5.23381 5.14743 5.13442 4.77196 5.13442C4.39649 5.13442 4.10569 5.23381 3.89956 5.43258C3.69342 5.63136 3.59035 5.91848 3.59035 6.29394V9.81669C3.59035 10.1922 3.69342 10.483 3.89956 10.6891C4.10569 10.8879 4.39649 10.9873 4.77196 10.9873C5.14743 10.9873 5.43455 10.8879 5.63332 10.6891C5.83946 10.483 5.94253 10.1922 5.94253 9.81669H7.33396C7.33396 10.2952 7.22721 10.7149 7.01371 11.0756C6.80021 11.4363 6.50205 11.7161 6.11922 11.9149C5.74375 12.1063 5.29467 12.202 4.77196 12.202Z" fill="#FAFAFA"/>
<path d="M8.88672 12.0916V4.03011H10.2671V7.26574H12.4316V4.03011H13.8119V12.0916H12.4316V8.54674H10.2671V12.0916H8.88672Z" fill="#FAFAFA"/>
</svg>
